# xmcd
#
# Track frame offsets:
#	150
#	15244
#	34823
#	54748
#	78499
#	94551
#	105924
#
# Disc length: 1741 seconds
#
# Revision: 0
# Processed by: cddbd v1.5.1PL2 Copyright (c) Steve Scherf et al.
# Submitted via: dBpowerAMP V4.0
#
DISCID=4306cb07
DTITLE=Bonberenea Txaranga - Bonberenea Txaranga
DYEAR=2005
DGENRE=Txaranga
TTITLE0=kaletxirri
TTITLE1=euskal paranoia
TTITLE2=bonberenea
TTITLE3=fandaringo
TTITLE4=hungariar galtza
TTITLE5=jota do!
TTITLE6=txuriko
EXTD=
EXTT0=
EXTT1=
EXTT2=
EXTT3=
EXTT4=
EXTT5=
EXTT6=
PLAYORDER=
